<?xml version="1.0" encoding="UTF-8"?>
<svg id="_レイヤー_2" data-name="レイヤー 2" xmlns="http://www.w3.org/2000/svg" viewBox="0 0 81.58 81.58">
  <defs>
    <style>
      .cls-1 {
        fill: none;
        stroke: #000;
        stroke-miterlimit: 10;
        stroke-width: 1.57px;
      }
    </style>
  </defs>
  <g id="_レイヤー_1-2" data-name="レイヤー 1">
    <g>
      <path class="cls-1" d="M75.81,37.56c-1.53-16.85-14.94-30.26-31.79-31.79"/>
      <path class="cls-1" d="M71.1,41.43c-.34,16.45-13.78,29.68-30.31,29.68s-30.33-13.58-30.33-30.33,13.23-29.97,29.68-30.31V.8C18.35,1.14.78,18.91.78,40.79s17.91,40.01,40.01,40.01,39.65-17.57,39.99-39.36h-9.68Z"/>
      <path class="cls-1" d="M29.8,26.01c-6.66,2.13-7.07,14.7-3.94,21.91l10.64-.8s1.43-6.3,1.38-12.46c-.03-3.36-1.94-10.62-8.08-8.66Z"/>
      <path class="cls-1" d="M26.24,50.73s-.36,10.21,6.76,9.42c6.3-.7,3.87-10.54,3.87-10.54l-10.62,1.12Z"/>
      <path class="cls-1" d="M53.18,20.47c-6.13-1.96-8.05,5.29-8.08,8.66-.05,6.17,1.38,12.46,1.38,12.46l10.64.8c3.13-7.21,2.72-19.78-3.94-21.91Z"/>
      <path class="cls-1" d="M46.12,44.08s-2.44,9.84,3.87,10.54c7.11.79,6.76-9.42,6.76-9.42l-10.62-1.12Z"/>
    </g>
  </g>
</svg>